<svg width="100" height="100" viewBox="0 0 100 100" fill="none" xmlns="http://www.w3.org/2000/svg">
<path d="M37.5 91.6667H62.5C83.3333 91.6667 91.6667 83.3333 91.6667 62.5V37.5C91.6667 16.6667 83.3333 8.33333 62.5 8.33333H37.5C16.6667 8.33333 8.33334 16.6667 8.33334 37.5V62.5C8.33334 83.3333 16.6667 91.6667 37.5 91.6667Z" stroke="#292D32" stroke-width="1.5" stroke-linecap="round" stroke-linejoin="round"/>
<path d="M37.5 41.6667C42.1024 41.6667 45.8333 37.9357 45.8333 33.3333C45.8333 28.731 42.1024 25 37.5 25C32.8976 25 29.1667 28.731 29.1667 33.3333C29.1667 37.9357 32.8976 41.6667 37.5 41.6667Z" stroke="#292D32" stroke-width="1.5" stroke-linecap="round" stroke-linejoin="round"/>
<path d="M11.125 78.9583L31.6667 65.1667C34.9583 62.9583 39.7083 63.2083 42.6667 65.75L44.0417 66.9583C47.2917 69.75 52.5417 69.75 55.7917 66.9583L73.125 52.0833C76.375 49.2917 81.625 49.2917 84.875 52.0833L91.6667 57.9167" stroke="#292D32" stroke-width="1.5" stroke-linecap="round" stroke-linejoin="round"/>
</svg>
